<svg width="20px" height="20px" viewBox="0 0 20 20" fill="none" xmlns="http://www.w3.org/2000/svg">
<path d="M10 19C14.9706 19 19 14.9706 19 10C19 5.02944 14.9706 1 10 1C5.02944 1 1 5.02944 1 10C1 14.9706 5.02944 19 10 19Z" stroke="#858A9D" stroke-width="2" stroke-linecap="round" stroke-linejoin="round"/>
<path d="M10 13C12.0711 13 13.75 11.3211 13.75 9.25C13.75 7.17893 12.0711 5.5 10 5.5C7.92893 5.5 6.25 7.17893 6.25 9.25C6.25 11.3211 7.92893 13 10 13Z" stroke="#858A9D" stroke-width="2" stroke-linecap="round" stroke-linejoin="round"/>
<path d="M3.9812 16.6913C4.54615 15.5806 5.40744 14.6478 6.46973 13.9963C7.53202 13.3448 8.75387 13 10 13C11.2462 13 12.468 13.3448 13.5303 13.9963C14.5926 14.6478 15.4539 15.5806 16.0189 16.6913" stroke="#858A9D" stroke-width="2" stroke-linecap="round" stroke-linejoin="round"/>
</svg>

